# xmcd CD database file
#
# Track frame offsets:
#	150
#	16081
#	53948
#	96542
#
# Disc length: 1317 seconds
#
# Revision: 0
# Processed by: cddbd v1.5.1PL2 Copyright (c) Steve Scherf et al.
# Submitted via: CdAid (MTCDDB.DLL V2003.12.21)
#
DISCID=2c052304
DTITLE=Trancelucent FT. Regi - Lonely
DYEAR=2005
DGENRE=Trance
TTITLE0=Lonely (Radio Edit)
TTITLE1=Lonely (Original Vocal)
TTITLE2=Lonely (Vidts and Vandueren)
TTITLE3=Lonely
EXTD=ID3G:  31 YEAR: 2005
EXTT0=
EXTT1=
EXTT2=
EXTT3=
PLAYORDER=
